<?xml version="1.0" encoding="UTF-8" standalone="no"?><!DOCTYPE svg PUBLIC "-//W3C//DTD SVG 1.1//EN" "http://www.w3.org/Graphics/SVG/1.1/DTD/svg11.dtd"><svg width="100%" height="100%" viewBox="0 0 233 151" version="1.1" xmlns="http://www.w3.org/2000/svg" xmlns:xlink="http://www.w3.org/1999/xlink" xml:space="preserve" xmlns:serif="http://www.serif.com/" style="fill-rule:evenodd;clip-rule:evenodd;stroke-linejoin:round;stroke-miterlimit:2;"><rect id="Artboard2" x="0" y="0" width="232.264" height="150.829"/><path d="M64.392,106.818l0,9.191c0,0.836 -0.767,1.514 -1.711,1.514l-25.232,0c-0.945,0 -1.712,-0.678 -1.712,-1.514l0,-9.191c0,-0.836 0.767,-1.515 1.712,-1.515l25.232,0c0.944,0 1.711,0.679 1.711,1.515Zm-12.457,-37.037l-0.171,-36.463l23.656,29.715l-13.926,38.663l-22.13,-0l-15.072,-38.663l23.904,-29.728l-0,34.455l0.036,1.923c-3.52,0.661 -6.163,3.43 -6.163,6.741c-0,3.804 3.489,6.892 7.787,6.892c4.298,-0 7.788,-3.088 7.788,-6.892c-0,-3.167 -2.419,-5.837 -5.709,-6.643Z" style="fill:#ebebeb;"/><path d="M112.99,76.733l-10.931,-0c-0.28,-0 -0.507,-0.228 -0.507,-0.507l0,-1.623c0,-0.28 0.227,-0.507 0.507,-0.507l10.931,-0l-0,-13.994c-0,-0.28 0.227,-0.507 0.506,-0.507l1.623,0c0.28,0 0.507,0.227 0.507,0.507l0,13.994l10.931,-0c0.279,-0 0.507,0.227 0.507,0.507l-0,1.623c-0,0.279 -0.228,0.507 -0.507,0.507l-10.931,-0l0,13.994c0,0.279 -0.227,0.506 -0.507,0.506l-1.623,0c-0.279,0 -0.506,-0.227 -0.506,-0.506l-0,-13.994Z" style="fill:#ebebeb;"/><path d="M194.152,80.858l-14.657,0l-0,-12.144l28.477,-0l-0,16.5c-0,3.852 -0.698,7.203 -2.094,10.05c-1.396,2.848 -3.267,5.221 -5.612,7.12c-2.345,1.898 -5.081,3.322 -8.208,4.271c-3.127,0.949 -6.421,1.424 -9.883,1.424c-5.193,0 -9.632,-0.558 -13.317,-1.675c-3.686,-1.173 -6.701,-3.043 -9.046,-5.612c-2.289,-2.568 -3.964,-5.918 -5.025,-10.05c-1.061,-4.188 -1.592,-9.297 -1.592,-15.328c0,-6.086 0.559,-11.195 1.676,-15.327c1.116,-4.188 2.791,-7.566 5.025,-10.134c2.289,-2.569 5.193,-4.412 8.71,-5.528c3.518,-1.117 7.65,-1.675 12.396,-1.675c2.625,-0 5.026,0.139 7.203,0.418c2.178,0.224 4.216,0.614 6.114,1.173c1.955,0.558 3.825,1.256 5.612,2.094c1.787,0.837 3.574,1.842 5.361,3.015l-8.46,10.218c-1.787,-1.452 -3.853,-2.54 -6.198,-3.266c-2.289,-0.726 -4.969,-1.089 -8.04,-1.089c-2.569,-0 -4.802,0.307 -6.701,0.921c-1.842,0.614 -3.378,1.703 -4.606,3.267c-1.173,1.507 -2.038,3.545 -2.597,6.114c-0.558,2.568 -0.837,5.807 -0.837,9.716c-0,4.076 0.307,7.426 0.921,10.05c0.614,2.569 1.508,4.607 2.68,6.114c1.173,1.508 2.625,2.541 4.355,3.099c1.787,0.559 3.853,0.838 6.198,0.838c1.62,-0 3.155,-0.168 4.607,-0.503c1.452,-0.335 2.736,-0.837 3.853,-1.507c1.116,-0.67 2.01,-1.508 2.68,-2.513c0.67,-1.061 1.005,-2.289 1.005,-3.685l-0,-6.366Z" style="fill:#ebebeb;fill-rule:nonzero;"/></svg>